<svg xmlns="http://www.w3.org/2000/svg" width="730" height="576" viewBox="0 0 729.600 576.000"><rect x="0" y="0" width="729.600" height="576.000" fill="#dcdcdc"/><line x1="134.400" y1="72.000" x2="700.800" y2="72.000" stroke="black" stroke-width="1.100" /><text x="126.720" y="72.000" fill="black" font-size="40.000" font-family="DejaVu Sans, Arial, sans-serif" text-anchor="end" dominant-baseline="middle">q0</text><line x1="134.400" y1="216.000" x2="700.800" y2="216.000" stroke="black" stroke-width="1.100" /><text x="126.720" y="216.000" fill="black" font-size="40.000" font-family="DejaVu Sans, Arial, sans-serif" text-anchor="end" dominant-baseline="middle">q1</text><line x1="134.400" y1="360.000" x2="700.800" y2="360.000" stroke="black" stroke-width="1.100" /><text x="126.720" y="360.000" fill="black" font-size="40.000" font-family="DejaVu Sans, Arial, sans-serif" text-anchor="end" dominant-baseline="middle">q2</text><line x1="134.400" y1="504.000" x2="700.800" y2="504.000" stroke="black" stroke-width="1.100" /><text x="126.720" y="504.000" fill="black" font-size="40.000" font-family="DejaVu Sans, Arial, sans-serif" text-anchor="end" dominant-baseline="middle">q3</text><rect x="163.200" y="18.000" width="105.600" height="108.000" fill="#0E29A6" stroke="#0E29A6" stroke-width="1.100" /><text x="216.000" y="72.000" fill="white" font-size="40.000" font-family="DejaVu Sans, Arial, sans-serif" text-anchor="middle" dominant-baseline="middle">H</text><line x1="216.000" y1="216.000" x2="216.000" y2="360.000" stroke="#53B4AA" stroke-width="1.200" /><circle cx="216.000" cy="216.000" r="27.720" fill="#53B4AA" stroke="#53B4AA" stroke-width="1.200" /><text x="216.000" y="216.000" fill="white" font-size="17.186" font-family="DejaVu Sans, Arial, sans-serif" text-anchor="middle" dominant-baseline="middle">FSIM</text><circle cx="216.000" cy="360.000" r="27.720" fill="#53B4AA" stroke="#53B4AA" stroke-width="1.200" /><text x="216.000" y="360.000" fill="white" font-size="17.186" font-family="DejaVu Sans, Arial, sans-serif" text-anchor="middle" dominant-baseline="middle">FSIM</text><line x1="350.400" y1="18.000" x2="350.400" y2="558.000" stroke="black" stroke-width="1.800" stroke-dasharray="6,4" /><rect x="432.000" y="18.000" width="105.600" height="108.000" fill="#E9685D" stroke="#E9685D" stroke-width="1.100" /><text x="484.800" y="52.000" fill="white" font-size="40.000" font-family="DejaVu Sans, Arial, sans-serif" text-anchor="middle" dominant-baseline="middle">D</text><text x="484.800" y="96.400" fill="white" font-size="31.200" font-family="DejaVu Sans, Arial, sans-serif" text-anchor="middle" dominant-baseline="middle">40</text><rect x="432.000" y="450.000" width="105.600" height="108.000" fill="#E9685D" stroke="#E9685D" stroke-width="1.100" /><text x="484.800" y="504.000" fill="white" font-size="40.000" font-family="DejaVu Sans, Arial, sans-serif" text-anchor="middle" dominant-baseline="middle">R</text><rect x="432.000" y="162.000" width="105.600" height="108.000" fill="#E9685D" stroke="#E9685D" stroke-width="1.100" /><text x="484.800" y="216.000" fill="white" font-size="40.000" font-family="DejaVu Sans, Arial, sans-serif" text-anchor="middle" dominant-baseline="middle"></text><path d="M 447.840 235.440 A 36.960 37.800 0 0 1 521.760 235.440" fill="none" stroke="white" stroke-width="3.300" stroke-linecap="round" /><circle cx="484.800" cy="235.440" r="3.300" fill="white" stroke="none" stroke-width="0.000" /><line x1="484.800" y1="235.440" x2="518.064" y2="201.420" stroke="white" stroke-width="1.100" /><polygon points="518.064,201.420 512.124,203.966 515.518,207.360" fill="white"/><text x="457.080" y="183.600" fill="white" font-size="34.000" font-family="DejaVu Sans, Arial, sans-serif" text-anchor="middle" dominant-baseline="middle">0</text><text x="512.520" y="183.600" fill="white" font-size="34.000" font-family="DejaVu Sans, Arial, sans-serif" text-anchor="middle" dominant-baseline="middle">1</text><rect x="432.000" y="306.000" width="105.600" height="108.000" fill="#E9685D" stroke="#E9685D" stroke-width="1.100" /><text x="484.800" y="360.000" fill="white" font-size="40.000" font-family="DejaVu Sans, Arial, sans-serif" text-anchor="middle" dominant-baseline="middle"></text><path d="M 447.840 379.440 A 36.960 37.800 0 0 1 521.760 379.440" fill="none" stroke="white" stroke-width="3.300" stroke-linecap="round" /><circle cx="484.800" cy="379.440" r="3.300" fill="white" stroke="none" stroke-width="0.000" /><line x1="484.800" y1="379.440" x2="518.064" y2="345.420" stroke="white" stroke-width="1.100" /><polygon points="518.064,345.420 512.124,347.966 515.518,351.360" fill="white"/><text x="457.080" y="327.600" fill="white" font-size="34.000" font-family="DejaVu Sans, Arial, sans-serif" text-anchor="middle" dominant-baseline="middle">0</text><text x="512.520" y="327.600" fill="white" font-size="34.000" font-family="DejaVu Sans, Arial, sans-serif" text-anchor="middle" dominant-baseline="middle">1</text><rect x="566.400" y="18.000" width="105.600" height="108.000" fill="#E9685D" stroke="#E9685D" stroke-width="1.100" /><text x="619.200" y="72.000" fill="white" font-size="40.000" font-family="DejaVu Sans, Arial, sans-serif" text-anchor="middle" dominant-baseline="middle"></text><path d="M 582.240 91.440 A 36.960 37.800 0 0 1 656.160 91.440" fill="none" stroke="white" stroke-width="3.300" stroke-linecap="round" /><circle cx="619.200" cy="91.440" r="3.300" fill="white" stroke="none" stroke-width="0.000" /><line x1="619.200" y1="91.440" x2="652.464" y2="57.420" stroke="white" stroke-width="1.100" /><polygon points="652.464,57.420 646.524,59.966 649.918,63.360" fill="white"/><text x="591.480" y="39.600" fill="white" font-size="34.000" font-family="DejaVu Sans, Arial, sans-serif" text-anchor="middle" dominant-baseline="middle">0</text><text x="646.920" y="39.600" fill="white" font-size="34.000" font-family="DejaVu Sans, Arial, sans-serif" text-anchor="middle" dominant-baseline="middle">1</text><rect x="566.400" y="450.000" width="105.600" height="108.000" fill="#E9685D" stroke="#E9685D" stroke-width="1.100" /><text x="619.200" y="504.000" fill="white" font-size="40.000" font-family="DejaVu Sans, Arial, sans-serif" text-anchor="middle" dominant-baseline="middle"></text><path d="M 582.240 523.440 A 36.960 37.800 0 0 1 656.160 523.440" fill="none" stroke="white" stroke-width="3.300" stroke-linecap="round" /><circle cx="619.200" cy="523.440" r="3.300" fill="white" stroke="none" stroke-width="0.000" /><line x1="619.200" y1="523.440" x2="652.464" y2="489.420" stroke="white" stroke-width="1.100" /><polygon points="652.464,489.420 646.524,491.966 649.918,495.360" fill="white"/><text x="591.480" y="471.600" fill="white" font-size="34.000" font-family="DejaVu Sans, Arial, sans-serif" text-anchor="middle" dominant-baseline="middle">0</text><text x="646.920" y="471.600" fill="white" font-size="34.000" font-family="DejaVu Sans, Arial, sans-serif" text-anchor="middle" dominant-baseline="middle">1</text></svg>