<svg xmlns="http://www.w3.org/2000/svg" width="730" height="288" viewBox="0 0 729.600 288.000"><rect x="0" y="0" width="729.600" height="288.000" fill="#dcdcdc"/><line x1="134.400" y1="72.000" x2="700.800" y2="72.000" stroke="black" stroke-width="1.100" /><text x="126.720" y="72.000" fill="black" font-size="40.000" font-family="DejaVu Sans, Arial, sans-serif" text-anchor="end" dominant-baseline="middle">q0</text><line x1="134.400" y1="216.000" x2="700.800" y2="216.000" stroke="black" stroke-width="1.100" /><text x="126.720" y="216.000" fill="black" font-size="40.000" font-family="DejaVu Sans, Arial, sans-serif" text-anchor="end" dominant-baseline="middle">q1</text><rect x="163.200" y="18.000" width="105.600" height="108.000" fill="#487EF0" stroke="#487EF0" stroke-width="1.100" /><text x="216.000" y="72.000" fill="white" font-size="40.000" font-family="DejaVu Sans, Arial, sans-serif" text-anchor="middle" dominant-baseline="middle">X</text><line x1="350.400" y1="72.000" x2="350.400" y2="216.000" stroke="#DE9367" stroke-width="2.000" /><circle cx="350.400" cy="72.000" r="5.040" fill="#DE9367" stroke="#DE9367" stroke-width="2.000" /><circle cx="350.400" cy="216.000" r="5.040" fill="#DE9367" stroke="#DE9367" stroke-width="2.000" /><rect x="432.000" y="162.000" width="105.600" height="108.000" fill="#0E29A6" stroke="#0E29A6" stroke-width="1.100" /><text x="484.800" y="216.000" fill="white" font-size="40.000" font-family="DejaVu Sans, Arial, sans-serif" text-anchor="middle" dominant-baseline="middle">H</text><line x1="619.200" y1="72.000" x2="619.200" y2="216.000" stroke="#0E29A6" stroke-width="3.600" /><line x1="604.800" y1="61.200" x2="633.600" y2="82.800" stroke="#0E29A6" stroke-width="3.600" /><line x1="604.800" y1="82.800" x2="633.600" y2="61.200" stroke="#0E29A6" stroke-width="3.600" /><line x1="604.800" y1="205.200" x2="633.600" y2="226.800" stroke="#0E29A6" stroke-width="3.600" /><line x1="604.800" y1="226.800" x2="633.600" y2="205.200" stroke="#0E29A6" stroke-width="3.600" /></svg>