<svg xmlns="http://www.w3.org/2000/svg" width="1541" height="432" viewBox="0 0 1540.634 432.000"><rect x="0" y="0" width="1540.634" height="432.000" fill="#dcdcdc"/><line x1="134.400" y1="72.000" x2="1511.834" y2="72.000" stroke="black" stroke-width="1.100" /><text x="126.720" y="72.000" fill="black" font-size="40.000" font-family="DejaVu Sans, Arial, sans-serif" text-anchor="end" dominant-baseline="middle">q0</text><line x1="134.400" y1="216.000" x2="1511.834" y2="216.000" stroke="black" stroke-width="1.100" /><text x="126.720" y="216.000" fill="black" font-size="40.000" font-family="DejaVu Sans, Arial, sans-serif" text-anchor="end" dominant-baseline="middle">q1</text><line x1="134.400" y1="360.000" x2="1511.834" y2="360.000" stroke="black" stroke-width="1.100" /><text x="126.720" y="360.000" fill="black" font-size="40.000" font-family="DejaVu Sans, Arial, sans-serif" text-anchor="end" dominant-baseline="middle">q2</text><rect x="163.200" y="162.000" width="105.600" height="108.000" fill="#E9685D" stroke="#E9685D" stroke-width="1.100" /><text x="216.000" y="216.000" fill="white" font-size="40.000" font-family="DejaVu Sans, Arial, sans-serif" text-anchor="middle" dominant-baseline="middle"></text><path d="M 179.040 235.440 A 36.960 37.800 0 0 1 252.960 235.440" fill="none" stroke="white" stroke-width="3.300" stroke-linecap="round" /><circle cx="216.000" cy="235.440" r="3.300" fill="white" stroke="none" stroke-width="0.000" /><line x1="216.000" y1="235.440" x2="249.264" y2="201.420" stroke="white" stroke-width="1.100" /><polygon points="249.264,201.420 243.324,203.966 246.718,207.360" fill="white"/><text x="188.280" y="183.600" fill="white" font-size="34.000" font-family="DejaVu Sans, Arial, sans-serif" text-anchor="middle" dominant-baseline="middle">0</text><text x="243.720" y="183.600" fill="white" font-size="34.000" font-family="DejaVu Sans, Arial, sans-serif" text-anchor="middle" dominant-baseline="middle">1</text><rect x="297.600" y="18.000" width="436.966" height="396.000" fill="#F16359" stroke="black" stroke-width="1.200" stroke-dasharray="6,4" /><text x="516.083" y="216.000" fill="white" font-size="40.000" font-family="DejaVu Sans, Arial, sans-serif" text-anchor="middle" dominant-baseline="middle">While q1=1-0</text><rect x="763.366" y="18.000" width="105.600" height="108.000" fill="#0E29A6" stroke="#0E29A6" stroke-width="1.100" /><text x="816.166" y="72.000" fill="white" font-size="40.000" font-family="DejaVu Sans, Arial, sans-serif" text-anchor="middle" dominant-baseline="middle">H</text><line x1="950.566" y1="72.000" x2="950.566" y2="360.000" stroke="black" stroke-width="1.000" /><circle cx="950.566" cy="72.000" r="5.040" fill="black" stroke="black" stroke-width="1.000" /><rect x="897.766" y="306.000" width="105.600" height="108.000" fill="#487EF0" stroke="#487EF0" stroke-width="1.100" /><text x="950.566" y="360.000" fill="white" font-size="40.000" font-family="DejaVu Sans, Arial, sans-serif" text-anchor="middle" dominant-baseline="middle">X</text><rect x="1032.166" y="18.000" width="105.600" height="108.000" fill="#E9685D" stroke="#E9685D" stroke-width="1.100" /><text x="1084.966" y="72.000" fill="white" font-size="40.000" font-family="DejaVu Sans, Arial, sans-serif" text-anchor="middle" dominant-baseline="middle"></text><path d="M 1048.006 91.440 A 36.960 37.800 0 0 1 1121.926 91.440" fill="none" stroke="white" stroke-width="3.300" stroke-linecap="round" /><circle cx="1084.966" cy="91.440" r="3.300" fill="white" stroke="none" stroke-width="0.000" /><line x1="1084.966" y1="91.440" x2="1118.230" y2="57.420" stroke="white" stroke-width="1.100" /><polygon points="1118.230,57.420 1112.290,59.966 1115.684,63.360" fill="white"/><text x="1057.246" y="39.600" fill="white" font-size="34.000" font-family="DejaVu Sans, Arial, sans-serif" text-anchor="middle" dominant-baseline="middle">0</text><text x="1112.686" y="39.600" fill="white" font-size="34.000" font-family="DejaVu Sans, Arial, sans-serif" text-anchor="middle" dominant-baseline="middle">1</text><rect x="1166.566" y="18.000" width="182.069" height="396.000" fill="#F16359" stroke="black" stroke-width="1.200" stroke-dasharray="6,4" /><text x="1257.600" y="216.000" fill="white" font-size="40.000" font-family="DejaVu Sans, Arial, sans-serif" text-anchor="middle" dominant-baseline="middle">End-0</text><rect x="1377.434" y="306.000" width="105.600" height="108.000" fill="#E9685D" stroke="#E9685D" stroke-width="1.100" /><text x="1430.234" y="360.000" fill="white" font-size="40.000" font-family="DejaVu Sans, Arial, sans-serif" text-anchor="middle" dominant-baseline="middle">R</text></svg>